# xmcd
#
# Track frame offsets: 
#        150
#        1990
#        18275
#        38771
#        57464
#        72268
#        88395
#        114081
#        129734
#        152381
#        171276
#        189103
#        204981
#
# Disc length: 3005 seconds
#
# Revision: 0
# Processed by: cddbd v1.5.2PL0 Copyright (c) Steve Scherf et al.
# Submitted via: ExactAudioCopy v0.99pb5
#
DISCID=9f0bbb0d
DTITLE=Dome - Naked
DYEAR=1900
DGENRE=
TTITLE0=Dome - Naked
TTITLE1=ผ่าเหล่า
TTITLE2=เวลา
TTITLE3=กำแพงอากาศ
TTITLE4=ฟูมฟัก
TTITLE5=ไม่ปรกติ
TTITLE6=เวลา (Remix)
TTITLE7=เต็มที่กับชีวิต
TTITLE8=ไม่ได้ยากเลย
TTITLE9=รอ
TTITLE10=ห่มเธอ
TTITLE11=กระดุม
TTITLE12=เวลา (ดนตรีฝึกร้อง)
EXTD=
EXTT0=
EXTT1=
EXTT2=
EXTT3=
EXTT4=
EXTT5=
EXTT6=
EXTT7=
EXTT8=
EXTT9=
EXTT10=
EXTT11=
EXTT12=
PLAYORDER=
